<?xml version="1.0" standalone="no"?>
<!DOCTYPE svg PUBLIC "-//W3C//DTD SVG 20010904//EN"
 "http://www.w3.org/TR/2001/REC-SVG-20010904/DTD/svg10.dtd">
<svg version="1.0" xmlns="http://www.w3.org/2000/svg"
 width="1827.000000pt" height="3000.000000pt" viewBox="0 0 1827.000000 3000.000000"
 preserveAspectRatio="xMidYMid meet">

<g transform="translate(0.000000,3000.000000) scale(0.100000,-0.100000)"
fill="#000000" stroke="none">
<path d="M0 15000 l0 -15000 9135 0 9135 0 0 15000 0 15000 -9135 0 -9135 0 0
-15000z m10918 12638 c73 -10 81 -13 68 -26 -12 -12 -26 -13 -83 -4 -37 5 -71
7 -74 3 -3 -3 -38 -235 -78 -516 -40 -280 -75 -518 -77 -527 -9 -31 -34 -22
-29 10 3 15 37 252 75 527 38 275 72 510 75 523 6 26 11 26 123 10z m-1582
-324 c37 -10 53 -20 57 -35 4 -16 2 -19 -11 -14 -81 31 -238 43 -332 25 -113
-21 -160 -39 -160 -60 0 -11 -7 -20 -16 -20 -11 0 -14 8 -12 33 3 30 7 33 70
55 127 42 288 49 404 16z m-1233 -101 c12 -11 -25 -43 -49 -43 -26 0 -405 -73
-519 -101 -94 -22 -125 -24 -125 -6 0 13 174 56 355 88 33 6 67 13 75 16 17 6
12 5 140 32 113 23 115 23 123 14z m3022 -38 c88 -9 143 -24 208 -57 31 -15
57 -30 57 -32 0 -3 3 -11 6 -19 4 -11 -15 -5 -58 18 -91 47 -155 60 -290 58
-65 -1 -118 2 -118 6 0 18 74 41 115 35 11 -2 47 -6 80 -9z m-1797 -127 c-4
-39 -22 -45 -135 -47 -151 -2 -295 -48 -342 -107 -12 -15 -26 -47 -33 -71 -11
-47 -25 -63 -34 -40 -8 23 15 99 43 135 53 70 219 122 393 122 69 0 78 2 83
20 9 33 29 23 25 -12z m-1470 -75 c-9 -15 -39 -73 -68 -128 -54 -103 -83 -161
-173 -348 -48 -100 -68 -123 -75 -85 -3 17 269 562 295 590 24 27 39 6 21 -29z
m1460 -237 c-80 -66 -227 -102 -287 -71 -18 9 -30 19 -27 22 3 4 43 7 89 7 74
1 88 5 145 35 66 36 82 58 82 111 0 68 15 60 18 -10 3 -68 1 -77 -20 -94z
m2038 53 c-14 -105 -81 -201 -171 -243 -44 -21 -69 -26 -135 -26 -91 0 -210
27 -210 47 0 17 24 16 84 -2 76 -23 181 -19 241 9 83 38 144 123 160 224 5 28
12 42 22 42 13 0 14 -9 9 -51z m-4684 1 c15 -7 25 -16 23 -21 -3 -4 -1 -10 5
-14 5 -3 10 -10 10 -15 0 -4 -16 0 -36 11 -20 10 -56 21 -79 25 -90 13 -320
-71 -413 -152 -34 -29 -46 -34 -55 -25 -9 10 -3 21 30 50 70 63 224 134 333
155 42 8 153 -1 182 -14z m5838 -6 c131 -30 199 -60 235 -102 13 -15 22 -28
21 -30 -2 -1 -34 13 -72 31 -92 44 -116 53 -201 71 -109 24 -133 22 -146 -14
-11 -28 -34 -46 -45 -35 -3 2 3 25 12 50 l18 45 56 0 c31 0 86 -7 122 -16z
m-2900 -104 c-12 -22 -49 -26 -81 -9 -31 16 -12 29 42 29 47 0 49 -1 39 -20z
m-1392 -72 c-7 -20 -29 -27 -223 -62 -126 -23 -193 -32 -200 -25 -19 19 -1 24
360 88 28 5 54 9 58 10 5 0 7 -4 5 -11z m-1584 -86 c-6 -9 -29 -23 -50 -31
-232 -84 -335 -160 -369 -273 -8 -29 -14 -35 -25 -28 -12 8 -12 17 5 67 35
105 132 180 315 244 52 18 99 39 104 47 6 10 11 11 19 3 8 -8 9 -16 1 -29z
m5766 -16 c36 -8 108 -30 159 -50 104 -40 118 -38 123 20 4 49 23 38 22 -13
-1 -75 -34 -90 -121 -52 -164 71 -309 91 -394 52 -53 -24 -83 -62 -100 -126
-13 -48 -35 -55 -33 -9 7 152 141 221 344 178z m-7610 -68 c0 -7 -4 -18 -8
-23 -14 -20 -151 -95 -173 -95 -23 0 -23 0 -4 19 22 21 165 110 178 111 4 0 7
-6 7 -12z m2248 -140 c-18 -27 -67 -43 -103 -34 -33 8 -27 32 7 28 14 -1 40 4
59 12 47 21 54 20 37 -6z m-308 -16 c0 -39 -116 -152 -182 -177 -53 -20 -112
-16 -137 10 -17 17 -11 19 60 15 20 -1 53 6 73 14 41 17 152 119 161 147 9 29
25 23 25 -9z m5910 -6 c0 -21 -46 -120 -63 -134 -8 -7 -42 -17 -75 -23 -48 -9
-72 -8 -123 6 -73 18 -118 43 -100 55 7 4 30 1 50 -6 56 -19 130 -26 181 -17
43 8 46 11 74 71 27 57 56 82 56 48z m1071 -56 c30 -16 50 -30 45 -30 -5 0 -3
-7 4 -15 17 -20 7 -19 -41 6 -23 11 -42 19 -44 17 -2 -2 -15 -34 -29 -71 -14
-37 -82 -171 -152 -297 -95 -174 -131 -230 -145 -230 -11 0 -19 5 -19 10 0 6
4 10 8 10 5 0 17 19 28 43 10 23 67 130 127 237 60 107 120 230 134 273 15 42
27 77 28 77 1 0 26 -13 56 -30z m283 -150 c19 -12 37 -27 40 -35 6 -16 -9 -21
-18 -6 -13 21 -88 23 -157 5 -38 -10 -72 -15 -76 -11 -17 18 87 64 149 66 15
1 42 -8 62 -19z m-1193 -105 c0 -14 -31 -19 -43 -7 -6 6 -7 15 -4 21 8 12 48
0 47 -14z m-2471 -59 c864 -87 1670 -317 2410 -687 807 -404 1499 -940 2069
-1604 466 -542 902 -1297 1144 -1980 170 -480 275 -944 333 -1475 22 -199 30
-777 15 -1008 -102 -1509 -741 -2901 -1831 -3993 -451 -452 -921 -808 -1471
-1115 -1426 -797 -3092 -1049 -4738 -718 -804 162 -1636 505 -2336 962 -1184
772 -2107 1930 -2572 3222 -326 905 -428 1915 -292 2875 93 656 278 1266 563
1850 329 674 758 1265 1299 1792 1140 1107 2637 1772 4262 1892 199 15 954 6
1145 -13z m-4640 -140 c0 -13 -312 -196 -356 -210 -23 -7 -49 8 -40 23 4 6 15
11 24 12 9 0 94 44 187 98 94 54 173 97 178 94 4 -2 7 -10 7 -17z m7874
-13276 c14 -5 26 -16 26 -23 0 -11 -18 -12 -85 -9 -80 4 -88 3 -126 -22 -39
-27 -78 -90 -79 -128 0 -10 -6 -18 -14 -18 -17 0 -29 27 -15 36 6 3 8 11 6 17
-6 16 44 104 63 112 8 3 31 15 50 25 38 22 130 27 174 10z m-3371 -39 c13 -5
27 -16 30 -24 4 -12 -9 -14 -81 -10 -79 5 -90 3 -122 -19 -47 -32 -76 -78 -85
-134 -5 -33 -10 -43 -17 -36 -28 28 3 143 50 185 45 41 165 61 225 38z m1963
-28 c24 -30 24 -44 0 -24 -27 22 -121 26 -172 6 -52 -20 -98 -75 -108 -130 -4
-22 -13 -35 -22 -35 -12 0 -14 8 -8 38 21 119 107 186 228 178 50 -4 62 -9 82
-33z m-5322 -32 c26 -27 15 -36 -25 -22 -99 34 -211 -23 -238 -124 -7 -27 -11
-312 -11 -897 0 -761 -2 -857 -15 -852 -13 6 -15 108 -15 868 0 536 4 875 10
898 20 72 77 132 141 149 52 13 130 3 153 -20z m4316 -101 c10 -14 17 -26 16
-27 -2 -2 -19 4 -39 12 -54 22 -161 20 -213 -6 -54 -25 -62 -35 -89 -111 -21
-58 -23 -60 -34 -39 -26 47 28 143 101 180 37 19 57 22 141 19 91 -3 100 -5
117 -28z m730 -115 c0 -8 -4 -15 -9 -15 -13 0 -22 16 -14 24 11 11 23 6 23 -9z
m-1940 -16 c0 -11 -4 -18 -10 -14 -5 3 -7 12 -3 20 7 21 13 19 13 -6z m1950
-64 c0 -8 -7 -15 -15 -15 -16 0 -20 12 -8 23 11 12 23 8 23 -8z m-1944 -32
c-10 -10 -19 5 -10 18 6 11 8 11 12 0 2 -7 1 -15 -2 -18z m1954 -53 c0 -11 -7
-20 -15 -20 -15 0 -21 21 -8 33 12 13 23 7 23 -13z m-1937 -37 c-4 -10 -9 -11
-16 -4 -5 5 -7 18 -3 28 6 14 9 15 16 4 4 -8 6 -21 3 -28z m1947 -63 c0 -31
-16 -41 -26 -15 -5 13 11 45 22 45 2 0 4 -13 4 -30z m-1938 -38 c-9 -24 -24 5
-17 29 8 23 8 23 15 4 4 -11 5 -26 2 -33z m1948 -67 c0 -16 -6 -25 -15 -25
-15 0 -21 31 -8 43 13 14 23 6 23 -18z m-1936 -33 c-4 -12 -10 -22 -15 -22
-11 0 -12 44 -2 54 12 11 23 -9 17 -32z m1946 -87 c0 -35 -3 -43 -15 -39 -9 4
-15 19 -15 39 0 28 6 37 28 44 1 1 2 -19 2 -44z m-1937 -47 c-3 -26 -9 -45
-14 -42 -11 6 -12 88 -2 98 14 14 21 -11 16 -56z m3437 -24 c0 -8 -5 -12 -10
-9 -6 4 -8 11 -5 16 9 14 15 11 15 -7z m-4462 -20 c29 -14 52 -32 52 -40 0
-18 1 -18 -51 6 -32 14 -66 20 -122 20 -95 0 -144 -18 -160 -59 -14 -39 -45
-38 -39 1 9 62 77 96 193 97 62 1 84 -4 127 -25z m2962 -656 c-14 -213 -25
-267 -59 -298 -23 -21 -34 -52 -65 -178 -35 -139 -48 -167 -68 -146 -7 6 8 68
22 99 6 11 19 61 31 110 27 118 44 157 65 153 12 -2 17 6 19 27 2 17 9 64 15
105 6 41 14 230 17 419 4 231 10 349 17 357 16 17 20 -446 6 -648z m1510 606
c0 -8 -5 -12 -10 -9 -6 4 -8 11 -5 16 9 14 15 11 15 -7z m-3436 -246 c-6 -288
-14 -455 -28 -568 -29 -233 -35 -259 -55 -221 -7 12 -9 27 -5 33 4 6 9 25 11
42 2 17 7 49 10 71 3 22 6 59 8 81 1 23 6 47 9 53 4 6 6 35 5 64 -1 29 1 59 5
65 4 7 10 144 12 305 3 160 7 298 10 305 2 6 8 12 13 12 6 0 8 -88 5 -242z
m1097 181 c22 -7 39 -19 42 -30 6 -23 9 -22 -43 -4 -112 39 -213 -13 -249
-128 -19 -62 -21 -62 -37 -9 -6 22 30 94 64 125 54 52 143 70 223 46z m2349
-19 c0 -11 -7 -20 -15 -20 -18 0 -19 12 -3 28 16 16 18 15 18 -8z m10 -100 c0
-22 -4 -28 -15 -24 -18 7 -19 26 -3 42 17 17 18 16 18 -18z m-7615 -46 c13
-16 22 -30 21 -32 -2 -1 -16 4 -32 13 -36 19 -124 19 -167 1 -44 -18 -85 -69
-99 -122 -16 -60 -43 -61 -33 -1 19 114 104 180 223 174 56 -3 66 -6 87 -33z
m7625 -75 c0 -28 -4 -39 -12 -37 -18 6 -22 46 -8 64 18 21 20 18 20 -27z
m-2624 -66 c-11 -11 -19 6 -11 24 8 17 8 17 12 0 3 -10 2 -21 -1 -24z m2625
-179 c-10 -158 -18 -190 -70 -261 -37 -52 -114 -92 -232 -125 -72 -19 -108
-22 -254 -22 -217 0 -340 19 -415 65 -48 30 -25 34 48 10 96 -33 196 -45 362
-45 176 0 269 18 377 73 110 55 142 119 153 303 4 80 12 133 20 143 7 8 14 14
16 12 2 -2 0 -71 -5 -153z m-2611 99 c0 -19 -3 -24 -10 -17 -6 6 -8 18 -4 27
9 24 14 21 14 -10z m-5290 -33 c0 -11 -7 -20 -15 -20 -18 0 -19 12 -3 28 16
16 18 15 18 -8z m5303 -77 c-4 -10 -9 -11 -16 -4 -5 5 -7 18 -3 28 6 14 9 15
16 4 4 -8 6 -21 3 -28z m-5293 -13 c0 -11 -7 -20 -15 -20 -15 0 -21 21 -8 33
12 13 23 7 23 -13z m5307 -84 c-4 -9 -11 -16 -17 -16 -11 0 -14 33 -3 44 11
10 26 -11 20 -28z m-5297 -6 c0 -11 -7 -20 -15 -20 -27 0 -18 30 13 39 1 1 2
-8 2 -19z m5302 -111 c-12 -31 -26 -7 -17 29 6 23 8 24 16 10 5 -9 5 -26 1
-39z m-5292 5 c0 -24 -4 -34 -12 -32 -18 6 -22 36 -8 53 18 21 20 19 20 -21z
m3240 -19 c0 -34 -36 -88 -72 -106 -36 -18 -71 -19 -848 -19 -789 0 -812 1
-850 20 -69 35 -59 55 13 25 31 -13 147 -15 831 -15 900 0 848 -5 887 77 20
40 39 49 39 18z m2068 -117 c1 -62 -6 -91 -19 -83 -10 7 -13 128 -3 138 14 14
22 -5 22 -55z m-5298 22 c0 -20 -5 -30 -15 -30 -15 0 -21 40 -8 53 14 15 23 6
23 -23z m10 -135 c0 -44 -3 -53 -15 -49 -26 10 -15 104 12 104 2 0 3 -25 3
-55z m5295 -252 c-3 -124 -10 -247 -15 -272 -6 -25 -9 -62 -9 -81 1 -52 -10
-163 -31 -305 -13 -91 -15 -96 -35 -89 -10 4 -11 12 -5 29 5 13 9 32 9 42 1
39 8 91 15 102 4 6 6 24 5 39 -2 15 0 32 4 38 4 7 9 64 12 129 3 64 7 120 9
123 2 4 7 108 11 232 4 124 9 228 12 233 2 4 9 7 14 7 7 0 8 -76 4 -227z
m-5288 -120 c-6 -264 -27 -566 -47 -672 -5 -30 -10 -72 -10 -94 0 -26 -4 -37
-12 -34 -17 5 -16 76 5 262 23 208 37 451 37 637 0 150 2 162 29 167 2 1 1
-119 -2 -266z m2596 -302 c24 -10 47 -26 50 -35 8 -20 8 -20 -36 -1 -45 19
-167 20 -210 1 -44 -18 -85 -69 -99 -122 -16 -60 -43 -61 -33 -1 4 23 13 53
20 67 18 33 74 86 105 99 44 17 154 13 203 -8z m1067 -7686 c0 -28 -31 -49
-60 -40 -42 13 -16 65 32 65 23 0 28 -4 28 -25z m-1512 -30 c-4 -17 -1 -25 9
-25 9 0 13 -8 11 -22 -3 -20 -10 -23 -57 -26 -71 -4 -85 2 -71 28 6 11 17 20
25 20 8 0 15 8 15 18 0 26 9 32 43 32 26 0 29 -3 25 -25z m3119 8 c-3 -10 -17
-46 -31 -80 -35 -82 -40 -114 -24 -136 13 -18 17 -18 51 -3 25 10 42 27 54 50
12 26 23 36 40 36 22 0 23 -3 17 -34 -12 -67 22 -71 51 -5 14 30 24 39 42 39
22 0 23 -3 17 -34 -3 -19 -3 -40 1 -46 10 -17 42 15 55 56 9 26 17 34 36 34
18 0 24 -5 24 -22 0 -26 -34 -87 -59 -105 -19 -14 -177 -16 -203 -2 -10 6 -19
5 -23 -1 -3 -5 -35 -10 -70 -10 -58 0 -66 3 -81 25 -22 34 -14 93 27 184 27
60 35 71 57 71 19 0 23 -4 19 -17z m241 -8 c-4 -17 -1 -25 9 -25 9 0 13 -8 11
-22 -3 -20 -10 -23 -57 -26 -71 -4 -85 2 -71 28 6 11 17 20 25 20 8 0 15 8 15
18 0 26 9 32 43 32 26 0 29 -3 25 -25z m412 15 c0 -6 -8 -27 -19 -48 -36 -73
-54 -142 -43 -167 10 -22 13 -23 64 -11 49 11 53 14 56 43 5 46 51 83 106 83
74 0 86 -34 31 -86 l-36 -33 27 -7 c41 -10 77 7 99 49 14 26 27 37 43 37 21 0
22 -3 16 -34 -12 -67 22 -71 51 -5 14 30 24 39 42 39 22 0 23 -3 17 -34 -3
-19 -3 -40 1 -46 10 -17 42 15 55 56 9 26 17 34 36 34 18 0 24 -5 24 -22 0
-26 -34 -87 -59 -105 -19 -13 -180 -16 -201 -3 -9 5 -19 5 -27 -2 -8 -6 -41
-8 -90 -4 -95 8 -98 8 -200 0 -80 -6 -82 -6 -98 20 -23 35 -15 93 26 185 26
59 36 71 55 71 13 0 24 -5 24 -10z m205 -20 c12 -20 -15 -50 -46 -50 -33 0
-48 22 -29 45 14 17 66 20 75 5z m-1840 -10 c12 -20 -15 -50 -46 -50 -33 0
-48 22 -29 45 14 17 66 20 75 5z m-807 -42 c-3 -21 -10 -23 -62 -26 -65 -3
-87 8 -66 33 9 10 31 15 72 15 56 0 59 -1 56 -22z m207 -40 c1 -44 -2 -50 -42
-83 -24 -20 -62 -45 -85 -55 -47 -21 -137 -26 -168 -10 -13 7 -21 7 -25 0 -10
-16 -128 -12 -151 5 -10 8 -36 15 -57 15 -54 0 -77 15 -77 50 0 34 34 62 99
82 24 7 46 19 48 26 6 14 53 17 53 3 0 -5 -9 -28 -20 -52 -11 -24 -20 -52 -20
-61 0 -28 28 -49 58 -42 30 7 82 57 82 79 0 9 10 15 25 15 24 0 25 -3 23 -42
-4 -52 9 -57 89 -32 54 17 56 19 26 22 -48 5 -61 27 -36 60 31 42 92 73 138
70 l40 -3 0 -47z m1233 -10 c-3 -21 -10 -23 -62 -26 -65 -3 -87 8 -66 33 9 10
31 15 72 15 56 0 59 -1 56 -22z m200 10 c21 -21 15 -86 -12 -113 -45 -45 -123
-60 -311 -60 -147 0 -175 3 -198 18 -15 9 -27 27 -27 38 0 29 53 79 84 79 34
0 33 -7 -5 -46 l-31 -32 23 -13 c51 -29 333 -3 411 37 28 14 30 19 25 54 -3
21 -2 41 1 44 9 10 27 7 40 -6z m-2188 -28 c30 -42 37 -101 15 -123 -23 -23
-86 -22 -111 2 -18 16 -23 17 -39 5 -10 -8 -32 -14 -48 -14 -15 0 -26 -4 -22
-10 13 -22 -24 -79 -70 -106 -62 -36 -182 -46 -237 -20 -62 30 -75 97 -32 162
32 49 52 64 81 64 29 0 29 -11 -1 -39 -14 -13 -32 -39 -41 -58 -15 -32 -15
-36 0 -59 21 -33 60 -47 110 -38 58 9 135 52 135 75 0 4 -17 11 -37 16 -28 6
-38 14 -38 28 0 18 9 21 75 25 41 3 82 10 91 15 30 18 99 85 99 95 0 23 49 9
70 -20z m1120 13 c-1 -28 -36 -98 -61 -122 -21 -19 -33 -22 -86 -19 l-63 3
-58 -58 c-35 -35 -66 -57 -80 -57 -33 0 -27 17 24 68 26 25 62 70 82 100 26
39 41 52 56 50 15 -2 20 -11 21 -33 0 -24 5 -31 23 -33 31 -5 58 21 78 74 13
35 22 44 40 44 16 0 24 -6 24 -17z m212 -30 c-5 -55 11 -83 40 -76 35 9 56 31
74 79 13 35 22 44 40 44 29 0 31 -19 5 -76 -30 -66 -56 -84 -122 -84 -39 0
-61 5 -69 15 -12 14 -16 13 -39 -8 -43 -40 -88 -67 -109 -67 -12 0 -24 -4 -27
-10 -3 -5 -33 -10 -66 -10 -57 0 -60 1 -57 23 3 20 10 23 73 27 39 3 79 11 91
17 36 21 101 99 114 137 9 29 16 37 33 34 19 -3 22 -8 19 -45z m-2643 0 c44
-33 51 -42 51 -70 0 -40 -127 -143 -177 -143 -29 0 -30 24 0 37 37 17 127 93
127 107 0 7 -18 25 -40 40 -22 14 -40 33 -40 41 0 24 40 18 79 -12z m621 5 c0
-26 -34 -87 -59 -105 -19 -14 -177 -16 -203 -2 -10 6 -19 5 -23 -1 -3 -5 -26
-10 -49 -10 -29 0 -48 -6 -57 -17 -24 -28 -131 -93 -155 -93 -43 0 -33 17 34
60 l67 43 -41 17 c-23 10 -44 25 -47 35 -16 39 43 85 108 85 55 0 75 -15 75
-55 0 -19 3 -35 8 -35 18 0 50 31 62 60 9 22 19 30 37 30 22 0 23 -3 17 -34
-12 -67 22 -71 51 -5 14 30 24 39 42 39 22 0 23 -3 17 -34 -3 -19 -3 -40 1
-46 10 -17 42 15 55 56 9 26 17 34 36 34 18 0 24 -5 24 -22z m3530 -66 c0 -41
-124 -152 -169 -152 -33 0 -24 22 19 53 22 16 57 48 77 73 38 45 73 58 73 26z
m-1330 -103 c0 -12 -8 -23 -19 -26 -11 -3 -21 -15 -23 -27 -2 -16 -11 -22 -37
-24 -31 -3 -33 -2 -29 22 4 18 1 26 -8 26 -14 0 -19 31 -7 43 3 4 33 7 65 7
52 0 58 -2 58 -21z"/>
<path d="M9310 25629 c-1454 -85 -2787 -616 -3881 -1546 -159 -135 -573 -552
-703 -708 -830 -997 -1296 -2127 -1397 -3385 -18 -222 -15 -694 5 -920 43
-481 127 -892 270 -1325 298 -900 786 -1678 1500 -2390 528 -527 1115 -940
1784 -1255 1369 -645 2937 -792 4424 -416 191 49 586 177 773 251 1200 476
2232 1308 2930 2360 567 854 879 1751 976 2805 16 167 16 720 0 895 -69 779
-270 1512 -591 2163 -423 858 -1031 1589 -1810 2175 -995 750 -2149 1183
-3430 1287 -180 15 -669 20 -850 9z m370 -1443 c0 -13 -77 -56 -102 -56 -7 -1
-45 -13 -84 -29 -78 -30 -151 -82 -286 -204 -49 -43 -88 -75 -88 -72 0 22 37
68 80 99 28 20 53 43 56 51 4 8 12 15 20 15 7 0 17 6 21 13 14 23 136 107 155
107 10 0 18 5 18 10 0 6 8 10 18 10 28 0 145 41 162 56 18 18 30 18 30 0z m30
-148 c0 -7 -12 -38 -26 -68 -31 -65 -34 -70 -77 -180 -19 -47 -42 -101 -50
-120 -9 -19 -21 -53 -27 -76 -5 -22 -19 -51 -30 -64 -13 -15 -20 -37 -20 -62
0 -22 -6 -52 -14 -66 -8 -15 -19 -58 -25 -97 -31 -189 -47 -259 -60 -263 -11
-4 -13 17 -8 119 7 179 26 339 44 374 21 41 63 193 63 230 0 17 7 48 15 70 8
22 14 66 15 97 l0 57 46 21 c26 11 57 20 70 20 12 0 26 5 29 10 9 14 55 12 55
-2z m95 -8 c14 -5 29 -19 33 -30 4 -12 18 -26 31 -33 12 -7 29 -23 36 -37 38
-71 53 -112 69 -180 22 -97 16 -117 -77 -267 -30 -48 -33 -49 -121 -27 -29 7
-109 -6 -185 -32 -25 -8 -48 -11 -52 -7 -4 5 19 96 52 203 32 106 59 199 59
206 0 6 7 17 15 24 8 7 15 20 15 30 0 19 46 127 62 148 13 15 28 15 63 2z
m-720 -291 c-13 -24 -25 -40 -25 -36 0 13 41 89 46 84 2 -2 -7 -24 -21 -48z
m207 -155 c3 -109 10 -224 14 -254 13 -88 11 -132 -6 -140 -8 -4 -26 -12 -38
-19 -13 -7 -26 -11 -28 -9 -7 8 -34 122 -45 198 -19 125 -46 95 -34 -38 7 -71
17 -107 51 -176 10 -20 13 -46 8 -92 -9 -89 -20 -85 -78 30 l-33 66 -6 -99
c-3 -55 -10 -108 -16 -118 -6 -10 -11 -16 -11 -13 0 3 -7 68 -15 145 -22 210
-20 261 17 384 17 58 41 122 54 142 12 20 29 52 37 70 18 43 96 131 111 126 7
-2 13 -69 18 -203z m-239 86 c-5 -19 -33 -49 -33 -36 0 7 31 56 35 56 2 0 1
-9 -2 -20z m-67 -128 c-23 -23 -33 -6 -10 19 12 13 20 16 22 9 3 -7 -3 -19
-12 -28z m1069 11 c10 -16 30 -38 45 -50 23 -19 29 -34 36 -85 11 -94 6 -166
-16 -216 -11 -24 -20 -50 -20 -56 0 -6 -10 -22 -22 -36 -13 -14 -35 -44 -50
-67 -15 -23 -55 -70 -90 -105 -35 -36 -74 -77 -87 -91 -13 -15 -34 -27 -47
-27 -14 0 -41 -7 -61 -15 -20 -8 -39 -13 -42 -10 -13 14 28 62 89 103 36 25
100 71 144 104 43 32 83 62 90 66 29 19 59 63 50 72 -7 7 -21 -3 -43 -30 -17
-22 -40 -40 -51 -40 -10 0 -21 -8 -24 -18 -3 -9 -20 -22 -38 -28 -47 -17 -100
-36 -123 -45 -25 -10 -97 -42 -107 -47 -5 -2 -8 4 -8 14 0 22 38 64 58 64 7 0
48 32 90 70 42 39 79 70 83 70 15 0 111 71 136 101 22 26 28 45 31 95 5 74 -7
86 -58 59 -37 -19 -72 -50 -172 -152 -39 -40 -77 -73 -85 -73 -19 0 -8 19 53
88 100 113 111 129 144 207 49 117 63 128 95 78z m543 -68 c-8 -8 -274 -85
-294 -85 -38 0 4 19 116 53 100 31 194 47 178 32z m-2158 -75 c48 -6 40 -7
-55 -9 -261 -3 -413 -60 -561 -210 -39 -40 -77 -72 -84 -69 -18 6 127 150 192
192 128 81 335 120 508 96z m143 -7 c-7 -2 -19 -2 -25 0 -7 3 -2 5 12 5 14 0
19 -2 13 -5z m332 -42 c-3 -6 -14 -11 -23 -11 -13 0 -13 2 4 14 21 15 30 14
19 -3z m1718 -21 c14 -11 36 -20 50 -20 14 0 56 -20 94 -45 37 -25 73 -45 79
-45 6 0 40 -19 75 -43 133 -88 206 -147 224 -181 11 -20 24 -36 29 -36 5 0 57
-47 115 -103 73 -72 142 -127 221 -177 124 -79 170 -116 170 -137 0 -7 8 -13
18 -13 18 0 102 -82 102 -100 0 -6 8 -14 18 -18 25 -9 201 -197 231 -244 12
-21 27 -38 33 -38 6 0 44 -28 84 -62 116 -100 133 -108 224 -108 69 0 82 3
108 25 17 14 57 35 89 47 66 24 209 36 226 19 6 -6 19 -11 28 -11 22 0 136
-77 171 -115 15 -16 34 -48 44 -70 9 -22 22 -53 29 -70 7 -16 20 -47 28 -67
15 -37 27 -43 87 -50 43 -5 40 -64 -7 -116 -16 -16 -33 -38 -39 -48 -6 -11
-20 -23 -32 -29 -11 -5 -25 -19 -30 -30 -10 -21 -107 -54 -207 -70 -63 -10
-108 -26 -140 -50 -16 -12 -59 -38 -95 -58 -36 -20 -91 -58 -123 -84 -217
-179 -204 -170 -228 -155 -22 14 -58 15 -77 3 -17 -10 -62 9 -62 27 0 7 12 17
26 22 42 16 17 33 -42 28 -43 -4 -58 -1 -74 14 -11 10 -20 22 -20 27 0 8 -132
41 -165 41 -22 0 -125 -65 -138 -87 -15 -24 -160 -84 -217 -90 -30 -2 -64 -9
-76 -15 -15 -7 -30 -6 -55 5 -22 9 -78 15 -158 16 -141 2 -174 -5 -316 -75
-50 -24 -98 -44 -107 -44 -10 0 -24 -10 -32 -22 -9 -13 -55 -58 -103 -100
-278 -244 -329 -279 -448 -303 -84 -17 -177 -54 -235 -92 -19 -13 -42 -23 -50
-23 -9 0 -29 -14 -45 -30 -16 -17 -62 -53 -102 -81 l-73 -50 -113 -3 c-120 -3
-257 -18 -322 -34 -34 -8 -103 -16 -245 -25 -23 -2 -25 2 -32 61 -5 44 -14 74
-31 95 -79 103 -135 131 -262 131 -89 0 -91 -1 -209 -57 -65 -31 -127 -57
-136 -57 -33 0 -107 -38 -128 -65 -47 -60 -46 -108 4 -206 13 -26 24 -64 24
-85 0 -37 3 -41 67 -79 81 -48 173 -60 220 -29 16 10 55 22 88 27 33 4 79 10
103 13 26 4 42 2 42 -5 0 -5 -19 -15 -42 -21 -94 -24 -244 -73 -265 -86 -28
-18 -103 -44 -126 -44 -9 0 -25 -4 -35 -9 -57 -29 -115 -51 -132 -51 -11 0
-29 9 -41 21 -16 16 -19 28 -14 58 5 29 -2 64 -30 146 -39 117 -71 170 -122
204 -18 11 -33 29 -33 39 0 26 -130 149 -166 158 -16 3 -39 13 -52 21 -30 18
-168 31 -158 15 4 -7 21 -19 38 -28 l32 -16 -38 -13 c-45 -16 -58 -12 -112 32
-23 18 -46 33 -52 33 -5 0 -50 69 -98 153 -48 83 -103 174 -121 201 -18 26
-33 54 -33 62 0 8 -4 14 -9 14 -5 0 -33 23 -63 51 -90 86 -160 135 -227 157
-56 19 -87 22 -227 22 l-163 0 -63 33 c-106 57 -126 70 -142 99 -9 15 -24 29
-34 32 -17 6 -27 20 -105 142 -53 84 -115 137 -176 152 -54 13 -85 0 -149 -61
-34 -33 -48 -58 -66 -117 -13 -41 -27 -99 -31 -129 -9 -70 -40 -104 -84 -95
-26 6 -31 3 -31 -13 0 -24 16 -44 54 -67 20 -13 25 -20 16 -26 -8 -5 -9 -10
-2 -14 6 -3 12 -1 14 6 3 7 20 1 49 -19 24 -17 69 -41 99 -53 30 -13 69 -34
87 -47 17 -12 41 -23 52 -23 11 0 32 -11 48 -24 15 -13 48 -33 73 -46 61 -31
170 -143 170 -175 0 -24 -2 -24 -61 20 -34 25 -69 45 -80 45 -10 0 -21 5 -24
10 -3 6 -14 10 -24 10 -9 0 -35 13 -57 28 -21 16 -66 39 -99 52 -32 13 -94 51
-138 83 -75 57 -77 60 -61 78 9 10 22 16 28 12 6 -3 5 0 -2 8 -11 12 -15 11
-23 -4 -6 -9 -15 -14 -21 -11 -7 4 -8 2 -4 -4 24 -39 -49 12 -119 83 -44 44
-66 77 -84 122 -25 66 -25 79 4 182 17 63 27 76 50 67 14 -5 16 -15 10 -66 -6
-48 -4 -66 9 -85 23 -35 36 -31 36 11 0 19 15 81 34 137 18 56 39 125 45 153
17 72 57 116 129 142 65 24 113 28 144 11 16 -9 18 -13 7 -20 -18 -10 -10 -17
29 -25 27 -6 31 -4 26 10 -9 23 9 20 35 -8 15 -16 29 -22 47 -18 17 3 33 -3
49 -18 21 -20 27 -21 40 -10 15 12 11 18 -31 57 l-47 44 39 27 c22 14 66 31
99 37 l59 11 -23 23 c-20 20 -30 22 -65 17 -51 -9 -123 -50 -131 -76 -8 -26
-38 -26 -107 1 -51 19 -58 20 -136 6 -69 -12 -82 -12 -82 -1 0 8 -4 14 -9 14
-5 0 5 32 22 72 44 99 138 200 227 242 56 26 76 31 140 30 64 -1 81 -5 114
-27 76 -52 145 -58 308 -28 57 11 139 25 183 31 44 7 105 20 135 29 30 10 75
23 100 30 25 7 53 17 62 22 10 5 32 9 49 9 29 0 30 -2 28 -35 -2 -19 2 -40 9
-47 17 -17 15 -43 -9 -90 -26 -52 -45 -124 -54 -210 -4 -41 -11 -68 -18 -68
-7 -1 -27 -26 -44 -57 -26 -44 -33 -67 -33 -110 0 -48 4 -58 33 -85 17 -16 56
-41 85 -54 46 -21 67 -24 175 -24 74 0 147 6 187 16 70 16 62 19 103 -37 7 -9
33 -25 60 -37 36 -16 47 -26 47 -44 0 -56 20 -95 63 -124 23 -16 45 -33 49
-39 4 -6 55 -9 129 -8 116 2 123 3 149 28 37 35 54 33 46 -6 l-6 -32 51 6 c52
6 89 29 89 54 0 7 7 13 14 13 28 0 66 64 66 108 0 51 0 51 130 17 106 -27 213
-32 263 -12 18 8 66 35 107 62 102 66 119 69 204 44 39 -12 94 -22 121 -23
l50 -1 3 -44 c3 -43 1 -47 -66 -115 -38 -39 -77 -84 -87 -101 -10 -16 -24 -34
-32 -38 -18 -11 -17 -111 2 -151 24 -51 78 -97 127 -109 24 -5 98 -12 165 -14
112 -4 129 -2 195 22 40 14 98 43 128 64 30 21 84 53 120 72 36 18 87 56 114
83 l48 50 -5 55 c-4 37 -12 59 -23 66 -66 40 -79 53 -86 85 -28 146 -73 237
-137 285 -103 75 -148 79 -272 25 -70 -31 -167 -41 -192 -20 -7 6 -23 18 -36
28 -45 35 -20 42 145 42 89 0 154 4 154 9 0 6 46 12 103 15 212 11 326 24 437
51 188 46 205 59 176 130 -19 45 -16 51 26 58 61 10 123 32 170 60 26 15 52
27 59 27 7 0 23 10 35 21 13 12 34 27 46 33 32 16 44 81 31 160 -6 33 -9 63
-7 65 2 2 12 -3 22 -12 10 -9 37 -23 61 -32 81 -28 288 -12 321 25 8 9 42 32
75 50 33 18 76 48 95 66 32 30 90 55 90 39 0 -3 -12 -22 -26 -41 -15 -19 -33
-60 -40 -92 -12 -50 -12 -63 2 -109 23 -74 73 -106 169 -111 63 -3 77 0 134
30 53 27 70 42 94 83 26 44 29 56 25 121 -3 62 -8 78 -38 122 -19 28 -51 60
-72 72 -34 19 -45 20 -98 12 -44 -6 -60 -6 -60 3 0 14 26 50 37 50 20 2 53 17
53 26 0 12 -33 12 -46 -1 -7 -7 -19 11 -37 58 -33 82 -64 113 -176 178 -84 48
-86 49 -168 48 -65 -1 -88 -5 -103 -19 -11 -10 -33 -19 -49 -21 -16 -2 -46
-15 -67 -29 -20 -14 -43 -25 -50 -25 -7 0 -19 -3 -28 -6 -12 -5 -16 0 -16 18
0 48 -87 108 -157 108 -21 0 -43 4 -49 8 -6 4 -18 36 -28 72 -10 36 -31 82
-47 102 -16 20 -29 39 -29 41 0 5 32 10 169 27 101 12 142 29 162 67 15 28 5
51 -32 71 -34 18 -135 9 -238 -22 -47 -15 -104 -26 -128 -26 -40 0 -43 2 -43
28 0 23 6 30 33 40 18 7 41 12 50 12 21 0 137 36 197 61 58 24 72 23 103 -1z
m-2299 -75 c13 -14 31 -25 41 -25 23 0 146 -93 175 -132 12 -16 33 -33 46 -38
14 -6 31 -25 39 -42 7 -18 23 -39 34 -45 21 -13 76 -111 68 -120 -3 -2 -32 15
-64 39 -54 39 -138 85 -284 152 -100 47 -227 70 -381 70 -75 0 -136 1 -135 2
56 49 93 74 102 70 7 -2 24 6 39 19 15 13 43 26 64 30 20 4 43 12 51 18 14 12
79 23 144 26 29 1 44 -5 61 -24z m263 17 c66 -6 86 -12 107 -31 20 -18 33 -22
63 -19 28 4 52 -2 93 -24 117 -60 136 -94 146 -264 9 -159 1 -174 -77 -149
-27 9 -45 50 -53 120 -4 33 -13 83 -21 110 -8 28 -19 69 -24 92 -13 49 -43 89
-59 79 -15 -9 -16 -79 -2 -126 11 -39 2 -133 -12 -124 -5 3 -20 23 -33 44 -38
60 -141 165 -195 200 -28 18 -50 36 -50 41 0 5 -18 18 -40 29 -22 11 -40 23
-40 25 0 7 97 5 197 -3z m-742 -212 c8 0 21 -22 30 -52 17 -57 20 -118 6 -118
-8 0 -67 93 -83 133 -10 24 1 49 19 43 8 -3 21 -6 28 -6z m2465 -67 c21 -22
46 -63 59 -98 12 -33 31 -74 41 -91 18 -28 18 -32 3 -53 l-16 -24 -18 24 c-12
15 -19 41 -19 72 0 32 -5 49 -15 53 -8 3 -23 21 -34 40 -24 41 -72 64 -133 64
l-43 1 28 24 c45 40 100 35 147 -12z m-1067 -263 c9 -52 24 -132 34 -176 l17
-82 -33 -63 c-42 -81 -93 -159 -104 -159 -4 0 -13 12 -19 26 -10 20 -8 36 7
82 24 69 58 132 85 157 18 16 29 65 15 65 -14 0 -90 -90 -87 -104 2 -9 -1 -16
-7 -16 -26 0 -1 162 44 289 8 24 15 55 15 69 0 53 18 5 33 -88z m-93 57 c0
-21 -41 -131 -53 -143 -9 -10 -45 6 -51 23 -11 27 75 160 95 147 5 -3 9 -15 9
-27z m1886 -45 c38 -11 86 -28 107 -39 50 -28 125 -124 132 -171 3 -20 8 -48
10 -62 2 -15 -4 -33 -17 -47 -20 -21 -21 -21 -40 -3 -16 15 -18 22 -9 38 15
29 14 57 -4 72 -13 10 -15 9 -15 -12 0 -32 -18 -48 -52 -48 -23 0 -28 5 -34
36 -4 22 -2 45 6 59 18 34 -4 63 -71 98 -65 33 -124 35 -179 7 -22 -11 -46
-20 -53 -20 -8 0 -26 -9 -40 -20 -27 -22 -53 -25 -77 -10 -12 7 -12 12 4 29
11 12 23 21 28 21 5 0 27 12 49 27 32 21 139 58 180 62 3 1 37 -7 75 -17z
m-904 -64 c31 -14 65 -29 76 -32 10 -4 24 -16 31 -29 6 -12 25 -30 42 -39 18
-11 32 -28 35 -47 4 -16 12 -32 19 -35 7 -2 28 -26 45 -52 l33 -47 -62 7 c-33
3 -87 9 -119 12 -46 5 -61 3 -71 -10 -17 -21 -11 -23 140 -45 31 -5 72 -16 90
-26 19 -10 41 -21 49 -25 16 -7 68 -176 58 -186 -4 -3 -24 4 -45 15 -54 30
-325 131 -418 156 -92 25 -175 60 -175 72 0 15 15 17 39 3 15 -7 26 -1 57 33
59 64 71 80 79 107 6 20 -1 16 -38 -22 -25 -27 -50 -48 -56 -48 -22 0 -10 45
21 77 22 23 31 42 31 65 0 35 -21 96 -41 120 -6 8 -10 17 -7 19 10 11 133 -18
187 -43z m-2366 -94 c-63 -61 -70 -65 -121 -69 -87 -6 -270 -92 -375 -176 -41
-33 -163 -86 -240 -104 -30 -8 -93 -28 -140 -45 -83 -31 -478 -116 -488 -105
-11 10 8 16 159 45 170 34 311 71 376 101 23 10 52 19 64 19 27 0 192 66 239
95 19 12 41 30 49 39 7 9 18 16 24 16 6 0 18 6 26 14 24 22 129 75 191 97 30
10 80 19 112 19 49 0 59 3 69 23 15 30 113 118 118 105 2 -5 -27 -39 -63 -74z
m964 51 c24 -14 24 -14 -23 -15 -70 0 -118 -30 -188 -115 -34 -41 -65 -75 -68
-75 -4 0 -32 9 -64 20 -31 11 -64 20 -72 20 -29 0 -4 21 59 51 33 16 88 45
121 64 103 60 186 78 235 50z m1113 -59 c-59 -67 -149 -146 -157 -138 -4 4 -6
2 -4 -5 3 -13 -251 -264 -326 -321 -40 -31 -84 -28 -126 7 -36 30 -37 52 -3
30 17 -10 30 -5 99 41 43 29 81 55 84 57 3 2 -6 13 -20 23 -14 10 -23 21 -20
23 3 2 44 25 93 51 48 26 85 52 81 57 -3 5 -8 8 -12 6 -4 -2 -41 -19 -82 -38
-41 -19 -104 -48 -139 -66 -36 -17 -69 -29 -73 -27 -10 6 120 151 183 204 25
21 66 48 90 59 74 33 208 71 257 72 26 1 58 4 72 8 42 13 42 2 3 -43z m-997
-8 c57 -53 197 -279 181 -294 -22 -22 -213 166 -221 218 -13 83 -16 118 -11
118 3 0 26 -19 51 -42z m-191 -200 c92 -87 111 -113 95 -123 -5 -3 -33 16 -63
42 -30 26 -77 66 -105 88 -50 38 -60 54 -45 68 15 16 35 3 118 -75z m-295 48
c43 -13 63 -37 41 -51 -15 -9 -14 -42 2 -48 7 -3 44 -39 82 -81 52 -59 65 -80
56 -89 -14 -14 -82 8 -192 63 -75 38 -205 80 -247 80 -33 0 -27 14 25 56 101
84 144 97 233 70z m3083 -50 c52 -21 97 -80 97 -126 0 -21 -4 -42 -10 -45 -6
-4 -10 7 -10 26 0 46 -61 109 -106 109 -58 0 -91 -11 -108 -38 -9 -15 -30 -45
-46 -67 -16 -22 -29 -48 -30 -57 0 -11 -8 -18 -20 -18 -60 0 31 181 109 217
35 16 85 16 124 -1z m-1422 -125 c30 -11 105 -40 167 -66 62 -25 132 -50 155
-54 23 -5 55 -14 72 -20 l29 -12 -69 -25 c-39 -14 -92 -33 -120 -42 -27 -10
-57 -22 -65 -27 -19 -12 -38 -14 -180 -16 -106 -1 -120 1 -175 27 -33 15 -62
28 -64 30 -2 1 10 21 25 43 24 33 35 41 61 41 24 0 37 -7 49 -25 9 -14 21 -25
27 -25 5 0 26 -12 44 -26 24 -18 38 -23 45 -16 7 7 -3 26 -33 61 -24 28 -52
65 -61 83 -16 29 -16 33 0 60 19 33 23 34 93 9z m-1841 -15 c77 -17 100 -25
100 -37 0 -11 6 -11 -107 1 -88 9 -94 9 -150 -17 -32 -14 -69 -36 -81 -49 -35
-34 -132 -215 -132 -246 0 -15 -4 -29 -9 -33 -5 -3 -17 -27 -25 -53 -10 -29
-24 -51 -38 -57 -12 -6 -23 -16 -26 -22 -10 -31 158 -5 368 57 243 72 248 73
289 66 38 -6 117 -42 147 -67 24 -20 16 -37 -45 -99 -46 -46 -56 -62 -46 -70
9 -8 15 -8 20 0 3 5 14 10 23 10 10 0 40 23 67 50 27 28 54 50 60 50 24 0 107
104 149 188 14 28 30 52 35 52 24 0 71 -53 71 -80 0 -15 7 -33 15 -40 23 -19
19 -28 -32 -78 -27 -26 -42 -47 -35 -50 19 -6 99 58 113 90 21 52 16 205 -9
267 -26 66 -21 74 69 118 32 15 59 34 59 41 0 15 22 16 38 0 19 -19 14 -65
-18 -201 -16 -69 -30 -139 -30 -156 0 -24 -14 -45 -67 -98 -38 -38 -93 -83
-123 -100 -30 -16 -80 -44 -110 -61 -68 -37 -255 -92 -315 -92 -24 0 -47 -5
-51 -11 -9 -15 -210 -4 -313 17 -65 14 -186 58 -231 85 -8 5 -36 20 -62 34
-25 13 -49 34 -53 45 -15 48 101 331 171 416 19 23 34 46 34 51 0 17 33 40 95
67 70 29 96 31 185 12z m-2030 -26 c0 -5 -19 -14 -42 -20 -76 -20 -102 -30
-158 -63 -49 -30 -76 -58 -183 -188 -27 -34 -27 -34 -13 -4 17 36 69 109 111
156 36 40 116 84 200 109 71 22 85 23 85 10z m6610 -9 c0 -5 -19 -11 -42 -15
-24 -4 -78 -23 -120 -42 -85 -38 -166 -56 -207 -44 -20 5 -12 8 36 12 34 3 74
13 90 21 45 23 146 66 168 70 37 8 75 7 75 -2z m-5252 -158 c68 -42 105 -94
95 -131 -5 -22 -43 -32 -43 -12 0 13 -88 100 -101 100 -12 0 -49 37 -49 50 0
16 68 11 98 -7z m-1892 -498 c-9 -14 -21 -25 -26 -25 -5 0 -39 -30 -76 -67
-64 -66 -72 -54 -11 17 33 40 119 111 126 105 2 -3 -4 -16 -13 -30z m3979 -24
c22 -10 47 -27 56 -37 36 -43 80 -138 105 -226 14 -51 33 -100 40 -109 30 -34
3 -80 -35 -59 -20 10 -34 49 -87 235 -9 33 -24 71 -34 85 -9 14 -25 37 -34 53
-13 22 -24 27 -54 27 -69 0 -202 -82 -202 -124 0 -9 -6 -16 -13 -16 -7 0 -17
-14 -22 -32 -13 -42 -41 -53 -31 -12 16 65 71 138 134 181 55 36 76 45 127 51
6 1 28 -7 50 -17z m-1530 -172 c43 -16 62 -30 85 -64 35 -50 42 -109 13 -103
-10 2 -29 26 -44 53 -16 33 -37 57 -61 69 -33 19 -41 19 -118 7 -60 -10 -84
-11 -93 -2 -12 12 -13 12 33 40 45 27 112 27 185 0z m5102 -14 c40 -9 105 -73
101 -98 -2 -12 -19 -25 -43 -34 -93 -34 -106 -40 -117 -51 -7 -7 -21 -12 -32
-12 -30 0 -157 -58 -249 -113 -43 -26 -87 -47 -98 -47 -10 0 -19 -7 -19 -15 0
-25 -193 -145 -233 -145 -10 0 -38 -14 -63 -31 -58 -40 -138 -76 -200 -91 -27
-6 -173 -14 -324 -18 -268 -7 -335 -13 -346 -31 -3 -5 -17 -9 -32 -9 -28 0
-205 -51 -238 -68 -11 -5 -32 -16 -49 -23 -68 -30 -384 -224 -437 -268 -32
-26 -84 -60 -115 -75 -32 -15 -74 -35 -93 -45 -19 -10 -50 -22 -67 -26 -18 -3
-35 -11 -38 -16 -4 -5 -16 -9 -28 -9 -12 0 -41 -7 -64 -15 -23 -8 -92 -24
-154 -35 -62 -11 -135 -26 -163 -34 -28 -8 -80 -22 -116 -31 -90 -24 -129 -39
-255 -101 -60 -30 -115 -54 -121 -54 -6 0 -19 -10 -30 -21 -10 -12 -39 -30
-64 -41 -25 -11 -52 -25 -60 -32 -8 -7 -46 -23 -85 -35 -114 -37 -192 -79
-242 -130 -48 -48 -163 -133 -196 -144 -43 -16 -136 18 -255 93 -43 27 -67 35
-118 38 -57 4 -72 1 -128 -27 -51 -25 -67 -38 -75 -63 -10 -28 -9 -36 9 -58
85 -104 126 -208 114 -288 -4 -24 -17 -74 -31 -110 -13 -37 -31 -87 -40 -111
-9 -24 -24 -52 -34 -62 -10 -10 -20 -29 -23 -41 -2 -13 -9 -50 -15 -82 -6 -33
-9 -62 -6 -64 11 -11 35 10 35 30 0 36 62 168 103 222 46 59 65 103 79 179 6
36 15 57 22 54 6 -2 42 0 81 4 40 5 82 5 100 0 111 -34 114 -34 156 -21 22 8
50 24 62 37 12 12 31 23 42 23 11 0 77 45 148 99 109 85 134 101 175 106 26 3
67 11 92 17 25 5 64 12 87 15 34 4 52 16 110 72 37 36 82 89 98 116 22 37 48
61 97 91 88 53 146 71 308 95 74 11 144 23 155 28 11 5 53 19 94 32 42 14 85
35 100 50 15 15 38 30 51 34 14 4 50 22 80 41 53 32 104 59 186 98 21 10 66
32 98 47 40 20 74 29 108 29 52 0 113 -24 102 -41 -9 -14 3 -55 22 -73 17 -18
66 -21 93 -7 15 8 26 35 47 109 5 18 60 14 104 -8 68 -35 131 -43 226 -30 46
7 88 17 92 24 4 6 28 21 54 33 56 26 119 81 149 129 20 34 105 97 162 122 15
7 41 12 58 12 16 0 53 14 82 30 30 17 64 30 77 30 13 0 31 7 40 15 39 36 267
48 350 19 25 -9 90 -18 145 -21 92 -5 105 -3 158 21 53 24 58 29 69 71 7 25
16 45 20 45 4 0 30 -21 57 -46 91 -83 127 -212 84 -301 -19 -41 -51 -63 -146
-99 -125 -48 -173 -55 -402 -63 -166 -6 -231 -12 -264 -25 -62 -23 -194 -113
-277 -190 -105 -96 -116 -127 -124 -346 -5 -137 -11 -186 -26 -225 -22 -58
-88 -131 -126 -140 -36 -9 -102 17 -106 41 -2 11 -9 24 -16 29 -15 13 -36 83
-36 121 0 16 12 67 25 113 31 106 32 174 4 221 -72 120 -161 152 -334 123 -60
-10 -102 -23 -126 -39 -20 -14 -54 -28 -75 -31 -21 -3 -58 -22 -83 -40 -24
-19 -57 -37 -72 -40 -16 -3 -29 -9 -29 -14 0 -20 -225 -225 -271 -247 -30 -15
-55 -35 -64 -53 -9 -16 -28 -35 -44 -44 -16 -8 -31 -18 -33 -22 -6 -14 -124
-82 -269 -154 -79 -40 -157 -82 -172 -95 -16 -13 -35 -24 -42 -24 -8 0 -39
-20 -68 -44 -172 -140 -301 -189 -479 -184 -90 3 -99 1 -120 -20 -22 -21 -23
-30 -23 -168 l0 -145 -42 -40 c-53 -49 -105 -54 -159 -12 -35 26 -74 95 -74
131 0 59 -13 83 -67 122 -60 42 -172 75 -221 64 -65 -15 -160 -79 -272 -183
-30 -28 -66 -54 -80 -57 -14 -3 -33 -9 -42 -15 -10 -5 -28 -9 -42 -9 -16 0
-31 -12 -50 -40 -14 -22 -26 -46 -26 -54 0 -20 -17 -29 -35 -19 -21 12 -128
107 -212 188 -40 39 -77 70 -82 70 -6 0 -50 37 -99 82 -48 46 -124 109 -168
141 -43 32 -87 70 -97 85 -10 15 -25 27 -35 27 -9 0 -42 20 -72 45 -30 25 -58
45 -62 45 -4 0 -32 21 -62 48 -30 26 -73 59 -97 74 -24 15 -102 69 -174 119
-71 50 -144 97 -162 105 -18 8 -47 27 -65 42 -18 16 -40 31 -49 34 -8 3 -54
33 -102 66 -47 34 -108 73 -134 88 -26 14 -64 40 -83 56 -112 96 -326 258
-372 281 -65 33 -140 53 -238 62 -41 3 -82 11 -91 16 -50 26 -57 214 -14 374
38 140 39 150 21 177 -18 25 -21 42 -6 33 26 -16 41 -71 45 -165 7 -152 49
-249 133 -306 17 -12 70 -35 119 -52 174 -61 218 -86 316 -183 50 -49 96 -89
101 -89 5 0 19 -9 30 -19 12 -10 45 -29 75 -42 52 -22 54 -22 67 -4 8 10 14
28 14 38 0 19 -38 115 -67 169 -13 25 -12 30 4 52 11 15 37 28 70 36 129 31
279 -25 319 -118 7 -19 25 -47 39 -64 14 -16 25 -34 25 -39 0 -5 25 -41 55
-80 52 -67 67 -99 46 -99 -5 0 -14 7 -21 15 -16 19 -82 20 -118 1 -76 -40 -98
-135 -43 -189 20 -21 21 -21 95 -3 74 17 75 17 97 -3 13 -12 34 -21 47 -21 14
0 49 -22 88 -55 36 -30 78 -62 93 -70 45 -23 126 -131 186 -248 31 -60 65
-119 76 -131 11 -11 28 -33 37 -48 44 -74 257 -107 372 -57 30 13 64 34 75 47
l20 23 0 -149 c1 -135 3 -152 23 -183 l22 -34 1 90 c1 50 0 96 -1 104 -4 30
34 189 57 241 18 39 26 79 30 140 l5 85 -54 82 c-42 65 -58 83 -77 83 -20 0
-22 -4 -16 -22 27 -88 28 -107 10 -173 -19 -73 -69 -146 -116 -171 -28 -14
-33 -14 -54 0 -31 20 -75 78 -75 99 0 8 -9 37 -21 64 -18 41 -22 78 -29 263
-8 228 -21 304 -59 344 -11 12 -21 27 -21 33 0 33 -125 105 -364 211 -50 21
-190 93 -276 140 -76 42 -218 175 -266 250 -19 28 -40 52 -47 52 -7 0 -29 16
-48 36 -66 69 -127 84 -149 37 -7 -16 -16 -90 -21 -165 -12 -183 -34 -267 -72
-268 -14 0 -20 33 -9 51 14 23 32 174 25 211 -9 47 16 160 45 202 39 56 75 81
99 68 11 -6 93 -83 184 -172 205 -202 340 -290 443 -290 36 0 48 -6 81 -40 91
-93 225 -150 354 -150 57 0 48 7 148 -120 72 -93 156 -180 173 -180 5 0 10 -8
10 -19 0 -31 25 -42 106 -48 69 -5 78 -4 93 14 9 11 43 30 76 43 33 12 69 26
80 30 11 5 56 18 100 29 44 12 96 27 116 33 20 5 45 7 56 4 13 -4 26 1 38 14
10 11 31 20 47 20 16 0 68 14 115 30 46 17 97 30 112 30 15 0 72 13 127 30 54
16 108 30 119 30 11 0 33 7 48 15 15 8 42 19 60 24 35 10 116 41 242 90 44 18
123 54 175 81 52 27 129 62 170 78 42 17 115 55 162 84 83 52 141 79 199 92
14 3 31 16 38 29 7 13 35 38 63 57 56 36 172 130 277 224 175 156 360 237 507
223 82 -7 227 -42 302 -72 34 -14 73 -25 87 -25 14 0 25 -4 25 -10 0 -6 28
-10 64 -10 36 0 68 -4 71 -10 14 -22 255 -6 307 21 10 5 30 9 45 9 16 0 57 14
91 30 35 17 69 30 76 30 6 0 16 10 21 22 6 12 42 46 80 74 39 29 93 75 120
103 110 109 224 199 274 216 28 9 53 21 57 26 7 11 248 6 301 -6z m-7745 -17
c-7 -7 -12 -8 -12 -2 0 14 12 26 19 19 2 -3 -1 -11 -7 -17z m6576 -231 c58
-58 18 -92 -56 -47 -22 14 -50 20 -87 20 -60 0 -73 9 -47 33 29 26 65 37 111
33 34 -3 51 -12 79 -39z m1332 -181 c111 -45 147 -64 181 -94 19 -16 47 -32
63 -36 16 -4 55 -24 85 -45 31 -21 88 -59 126 -84 39 -25 97 -68 130 -96 33
-28 83 -69 110 -92 76 -62 259 -272 327 -374 99 -148 238 -460 238 -535 0 -12
5 -30 10 -41 6 -11 15 -56 21 -102 31 -268 31 -278 15 -427 -20 -176 -36 -242
-91 -386 -54 -139 -80 -192 -167 -331 -167 -269 -525 -628 -928 -932 -129 -97
-463 -331 -504 -352 -6 -3 -23 -12 -38 -20 -14 -8 -77 -46 -140 -85 -103 -65
-478 -261 -623 -326 -33 -15 -89 -40 -125 -56 -36 -16 -83 -35 -105 -42 -22
-7 -94 -34 -160 -60 -288 -114 -739 -237 -1138 -311 -88 -16 -178 -29 -201
-29 -23 0 -46 -4 -52 -9 -9 -9 -76 -16 -279 -27 -55 -3 -104 -9 -110 -14 -15
-13 -595 -13 -595 0 0 10 135 154 247 264 111 109 96 103 299 116 98 6 224 15
279 21 55 6 131 12 168 14 38 2 74 8 80 13 7 6 37 12 67 16 30 3 82 10 115 15
33 6 90 15 126 20 94 14 688 161 723 178 16 8 57 23 90 33 251 74 629 227
1068 431 349 164 748 406 1033 629 181 141 458 411 545 530 167 228 284 490
333 745 21 110 32 265 18 265 -6 0 -11 -21 -11 -49 0 -66 -79 -339 -131 -456
-8 -16 -21 -37 -30 -45 -9 -8 -24 -36 -33 -62 -31 -84 -167 -275 -278 -391
-132 -137 -159 -164 -208 -210 -109 -101 -554 -425 -587 -426 -6 -1 -48 -26
-93 -57 -173 -119 -846 -455 -1040 -519 -30 -10 -68 -26 -85 -37 -16 -10 -43
-18 -59 -18 -16 0 -74 -22 -130 -49 -55 -27 -146 -62 -201 -77 -55 -15 -131
-40 -169 -56 -38 -15 -77 -28 -87 -28 -10 0 -42 -9 -71 -19 -29 -10 -71 -22
-93 -25 -22 -3 -94 -23 -159 -45 -68 -23 -184 -51 -270 -66 -83 -14 -176 -30
-206 -36 -30 -6 -73 -12 -95 -14 -84 -7 -201 -25 -227 -36 -15 -6 -45 -9 -65
-7 -21 3 -126 -1 -233 -8 -207 -14 -556 -18 -609 -8 -24 5 -29 9 -20 20 5 7
23 16 39 19 15 3 50 20 76 37 54 34 437 188 468 188 11 0 39 9 62 20 23 11
106 43 185 70 79 27 189 68 244 91 124 52 581 216 655 235 90 23 122 18 211
-28 l81 -43 163 -3 c156 -4 167 -2 273 27 195 54 211 62 316 164 83 80 97 99
110 146 18 62 21 188 6 242 -5 19 -26 54 -45 76 -19 23 -35 48 -35 56 0 9 19
29 43 45 200 138 270 184 323 210 75 38 239 95 319 112 33 7 75 19 94 27 31
14 40 14 86 -1 72 -22 164 -20 273 8 86 22 99 29 160 83 54 49 68 68 78 107
16 61 26 72 85 91 27 9 51 21 54 26 4 5 20 9 36 9 16 0 46 11 67 24 20 14 73
38 117 55 44 17 105 46 135 66 30 19 74 44 96 55 23 12 65 41 93 65 29 25 65
52 81 62 32 19 67 100 95 223 17 76 21 310 5 310 -6 0 -13 -7 -16 -14 -3 -8
-31 -34 -61 -57 -31 -23 -72 -58 -92 -78 -49 -48 -312 -179 -406 -202 -27 -6
-54 -16 -60 -20 -11 -11 -65 -12 -65 -1 0 4 21 16 47 26 25 11 60 32 78 47 17
16 50 32 72 37 47 11 39 6 187 111 86 62 141 111 202 180 93 105 104 133 86
213 -16 65 -70 202 -104 261 -15 26 -28 51 -28 55 0 4 -9 15 -20 25 -11 9 -20
23 -20 30 0 8 -10 22 -21 33 -12 10 -35 39 -52 64 -50 72 -155 176 -257 254
-113 86 -345 246 -356 246 -12 0 -176 80 -194 95 -8 6 -37 20 -65 30 -27 10
-59 24 -70 32 -11 7 -27 13 -37 13 -27 0 -22 32 13 80 35 48 35 48 139 6z
m-240 -6 c0 -13 -13 -28 -33 -40 -18 -11 -43 -33 -55 -50 -14 -18 -32 -30 -46
-30 -12 0 -33 -12 -47 -26 -43 -46 -114 -74 -198 -76 -67 -2 -80 1 -109 22
-42 31 -40 47 8 66 22 9 40 19 40 23 0 17 63 43 92 37 19 -4 42 1 68 14 22 11
45 20 52 20 7 0 33 14 58 30 37 24 56 29 108 29 56 1 62 -1 62 -19z m-7398
-107 c50 -53 82 -149 34 -104 -27 26 -92 141 -79 141 5 0 25 -17 45 -37z
m7449 -3 c-10 -9 -20 -22 -24 -30 -4 -11 -6 -9 -6 5 -1 11 6 31 15 44 13 18
18 20 25 10 6 -9 3 -19 -10 -29z m-7511 -159 c0 -5 -105 -115 -232 -244 -128
-130 -245 -250 -260 -269 -14 -18 -30 -30 -34 -26 -4 4 8 26 27 48 48 57 482
499 492 500 4 0 7 -4 7 -9z m783 -74 c24 -49 36 -112 47 -247 13 -142 20 -165
54 -174 30 -7 33 -18 11 -36 -12 -10 -22 -8 -56 14 -56 37 -69 77 -80 231 -5
71 -13 154 -19 184 -5 29 -10 60 -10 68 0 24 36 -3 53 -40z m5341 -109 c9 -35
7 -45 -10 -62 -22 -23 -31 -20 -42 13 -8 22 -7 34 4 50 20 27 40 27 48 -1z
m-6123 -108 c-6 -36 -10 -86 -8 -112 1 -36 -3 -52 -19 -70 -12 -13 -32 -47
-44 -76 -31 -72 -24 -131 23 -208 26 -41 37 -71 37 -97 0 -21 9 -57 21 -80 24
-47 116 -147 136 -147 8 0 18 -11 23 -25 7 -19 3 -40 -18 -92 -30 -76 -49
-105 -109 -172 -23 -26 -51 -71 -63 -101 -12 -30 -26 -60 -31 -66 -5 -6 -12
-33 -15 -60 -4 -32 -19 -69 -42 -104 -45 -70 -53 -130 -24 -187 19 -37 33 -47
96 -67 11 -4 16 -12 12 -22 -9 -24 12 -142 34 -184 10 -20 34 -50 52 -66 18
-17 55 -62 81 -101 56 -83 348 -372 506 -501 119 -98 333 -252 349 -252 18 0
92 -78 92 -97 0 -10 16 -42 35 -70 33 -49 67 -80 207 -189 49 -38 511 -281
568 -299 14 -4 43 -23 64 -41 22 -19 45 -34 52 -34 12 0 73 -29 84 -40 3 -3
28 -6 55 -8 28 -2 70 -12 94 -23 24 -10 54 -19 66 -19 12 0 30 -10 41 -21 l19
-21 -40 4 c-69 9 -241 47 -279 63 -19 8 -46 15 -59 15 -12 0 -66 13 -118 30
-52 16 -135 39 -184 50 -91 21 -499 152 -545 175 -14 7 -47 18 -74 24 -62 15
-335 136 -531 235 -230 116 -353 186 -438 250 -43 31 -87 60 -97 64 -63 24
-363 309 -464 440 -64 84 -174 268 -188 316 -7 21 -20 43 -30 50 -10 6 -18 20
-18 31 0 11 -16 79 -35 150 -19 72 -35 144 -35 162 0 41 -9 63 -26 63 -18 0
-18 -6 7 -195 13 -96 28 -170 37 -185 9 -14 24 -56 34 -94 35 -137 191 -384
371 -589 61 -69 259 -247 275 -247 5 0 37 -25 72 -55 35 -30 69 -55 75 -55 7
0 31 -14 54 -30 102 -75 298 -182 616 -340 116 -57 315 -137 395 -157 30 -8
72 -25 92 -39 21 -13 48 -24 60 -24 13 0 82 -20 153 -45 128 -45 693 -195 732
-195 11 0 26 -6 32 -14 7 -8 43 -16 94 -19 45 -4 127 -18 182 -31 55 -13 134
-27 175 -31 41 -3 125 -15 185 -26 121 -22 473 -54 717 -65 l158 -7 -48 -41
c-138 -119 -252 -246 -252 -280 0 -36 -65 -47 -190 -32 -30 4 -93 11 -140 16
-135 14 -502 69 -540 80 -19 6 -98 22 -175 36 -226 41 -798 185 -865 219 -14
7 -43 16 -65 19 -36 7 -131 42 -178 68 -10 5 -67 25 -125 45 -148 50 -337 132
-462 202 -58 32 -139 75 -180 95 -93 45 -218 119 -307 181 -37 27 -104 73
-148 104 -240 166 -479 408 -578 584 -23 41 -59 99 -80 129 -38 55 -116 223
-144 308 -69 214 -93 383 -93 665 0 181 3 231 26 360 14 83 36 175 49 205 13
30 35 89 51 130 69 186 107 261 229 450 111 170 241 321 399 463 85 77 91 80
95 57 2 -14 -2 -54 -8 -90z m3137 13 c71 -17 167 -76 189 -116 15 -26 17 -123
4 -132 -6 -3 -24 23 -40 59 -22 45 -39 67 -58 74 -52 20 -141 33 -207 30 -61
-3 -65 -4 -70 -30 -4 -21 -14 -30 -47 -39 -50 -16 -70 -6 -82 42 -8 30 -6 36
17 54 24 17 180 72 214 74 7 1 43 -6 80 -16z m-364 -108 c26 -20 15 -85 -15
-85 -56 0 -80 54 -37 84 27 19 28 19 52 1z m4788 -118 c69 -56 83 -85 65 -129
-8 -18 -32 -49 -54 -69 -72 -65 -192 -97 -398 -106 -56 -2 -114 -10 -132 -19
-17 -8 -39 -14 -50 -14 -10 0 -47 -14 -81 -30 -35 -17 -70 -30 -77 -30 -16 0
-75 -32 -75 -41 0 -4 21 -9 47 -11 33 -2 52 1 63 12 14 14 34 21 155 55 28 8
97 19 155 25 192 20 358 59 418 98 21 14 25 13 44 -5 11 -11 20 -35 21 -53 2
-32 -1 -34 -56 -56 -31 -12 -79 -28 -105 -34 -26 -6 -74 -18 -107 -26 -33 -8
-96 -21 -140 -28 -120 -20 -168 -34 -300 -84 -134 -51 -257 -109 -366 -172
-85 -50 -219 -113 -225 -107 -3 3 2 36 11 73 12 50 15 110 14 219 -1 89 2 161
9 176 15 36 110 108 265 200 78 46 124 57 294 69 210 15 413 58 473 100 57 39
69 38 132 -13z m-8162 -181 c-28 -47 -53 -86 -56 -86 -6 0 8 27 59 113 22 37
42 66 44 63 3 -3 -18 -43 -47 -90z m797 -54 c71 -4 85 -2 111 17 17 11 35 21
42 21 7 0 48 -16 93 -35 84 -36 129 -71 153 -117 9 -17 20 -25 31 -22 13 4 24
-6 38 -33 22 -43 35 -55 52 -49 6 3 28 -10 50 -28 21 -18 59 -47 86 -65 26
-18 55 -43 63 -57 9 -13 26 -24 38 -24 12 0 42 -17 68 -37 26 -21 76 -56 113
-78 126 -76 253 -162 335 -229 45 -36 88 -66 96 -66 30 0 93 -41 124 -80 17
-22 38 -40 45 -40 21 0 227 -137 344 -229 58 -45 113 -87 123 -92 10 -5 18
-16 18 -23 0 -8 11 -17 25 -20 13 -3 48 -27 77 -52 29 -25 67 -56 83 -69 17
-14 52 -43 78 -65 27 -22 52 -40 58 -40 5 0 9 -9 9 -19 0 -11 9 -22 19 -26 11
-3 23 -15 26 -25 3 -11 18 -25 33 -32 37 -18 54 -60 55 -135 1 -69 16 -81 29
-22 10 45 0 110 -23 156 -29 56 -25 86 16 122 28 24 45 31 78 31 54 0 102 25
170 86 105 96 175 133 255 134 44 0 138 -26 148 -41 2 -4 -12 -17 -33 -28 -21
-10 -50 -32 -64 -48 -36 -38 -99 -135 -99 -150 0 -30 38 -8 99 56 70 73 100
94 124 85 14 -5 18 -11 56 -99 29 -65 95 -105 172 -105 51 0 52 1 130 80 43
44 87 80 97 80 10 0 52 11 93 25 41 14 101 32 134 39 73 17 150 48 315 127 69
32 130 59 137 59 6 0 15 9 18 20 3 11 10 20 14 20 4 0 20 13 37 28 16 16 67
55 114 87 47 32 101 71 120 86 48 39 176 96 268 121 42 11 109 29 147 40 39
11 97 27 130 35 254 61 415 117 415 143 0 16 -40 12 -105 -10 -82 -27 -200
-56 -325 -81 -241 -48 -460 -141 -599 -254 -109 -89 -144 -114 -162 -115 -9 0
-23 -10 -32 -23 -8 -12 -32 -31 -53 -42 -22 -11 -77 -41 -124 -67 -83 -46
-206 -93 -285 -108 -22 -5 -83 -18 -135 -30 -52 -12 -108 -23 -125 -24 l-30
-1 -3 78 c-2 42 1 77 5 77 4 0 69 5 144 10 130 9 139 11 231 54 59 28 138 78
209 132 94 71 260 177 431 275 15 9 51 36 80 61 29 24 78 62 108 83 30 22 82
65 116 95 34 30 85 75 114 100 57 48 209 150 223 150 4 0 25 11 45 25 20 14
45 25 55 25 9 0 43 9 74 20 39 14 83 20 138 20 98 0 156 -25 197 -85 l28 -40
-26 -80 c-23 -70 -25 -92 -22 -183 3 -59 10 -108 16 -114 7 -7 12 -22 12 -34
0 -17 -14 -29 -66 -53 -36 -17 -73 -31 -80 -31 -8 0 -38 -12 -66 -26 -72 -36
-236 -92 -328 -111 -14 -3 -38 -11 -55 -18 -16 -7 -48 -16 -70 -20 -110 -18
-437 -140 -580 -217 -154 -81 -341 -193 -350 -209 -4 -5 -16 -9 -29 -9 -12 0
-35 -14 -52 -31 -16 -17 -60 -49 -97 -72 -38 -23 -85 -52 -105 -64 -52 -32
-236 -103 -266 -103 -14 0 -27 -4 -30 -9 -6 -8 -50 -21 -145 -40 -81 -17 -239
-134 -265 -196 -8 -18 -31 -52 -52 -75 -41 -45 -154 -130 -173 -130 -6 0 -35
-12 -64 -27 -85 -44 -217 -61 -256 -34 -34 23 -103 44 -127 39 -16 -3 -19 -12
-18 -60 1 -63 23 -127 60 -175 13 -17 24 -39 24 -48 0 -10 11 -26 24 -36 14
-11 28 -29 32 -41 3 -12 33 -69 65 -127 50 -90 60 -119 70 -186 15 -106 5
-197 -33 -298 -38 -102 -43 -123 -30 -131 30 -19 122 153 137 258 10 67 23 79
92 84 70 5 124 -17 167 -68 30 -37 32 -61 10 -137 -16 -55 -15 -170 1 -235 l7
-28 -65 0 c-36 0 -99 5 -139 10 -40 6 -102 12 -138 15 -102 7 -195 22 -216 33
-10 6 -58 15 -105 22 -48 6 -101 17 -118 26 -30 15 -151 148 -151 166 0 4 -15
30 -34 56 -18 27 -42 64 -51 83 -10 19 -27 43 -39 54 -12 11 -30 31 -41 45
-12 14 -29 30 -40 36 -30 17 -33 39 -4 30 13 -4 33 -8 43 -7 30 0 54 -17 86
-61 19 -26 30 -53 30 -75 0 -22 5 -33 14 -33 17 0 74 -75 82 -107 4 -13 28
-34 61 -53 30 -17 74 -49 97 -71 32 -29 52 -39 76 -39 l32 0 -17 26 c-13 20
-14 28 -4 40 16 19 31 18 52 -6 21 -25 38 -25 65 0 23 21 27 36 36 110 3 25
11 77 17 115 7 39 12 91 11 116 0 49 -43 187 -70 229 -40 63 -122 235 -122
257 0 14 -9 32 -20 41 -21 18 -70 174 -70 224 0 32 -23 50 -101 77 -67 23
-236 114 -269 145 -14 13 -52 41 -85 62 -70 44 -211 177 -263 249 -98 135
-222 246 -310 277 -31 11 -68 25 -82 32 -14 7 -42 16 -63 19 -21 3 -62 20 -92
37 -57 33 -72 52 -169 215 -26 45 -74 113 -106 152 -51 62 -73 79 -163 127
-57 31 -112 65 -122 76 -10 11 -29 20 -42 20 -16 0 -41 20 -81 63 -121 131
-139 145 -206 152 -33 4 -74 13 -91 20 -16 8 -48 19 -70 25 -78 22 -183 105
-161 127 4 4 15 -3 25 -15 9 -13 24 -24 31 -25 8 -2 49 -17 90 -34 41 -17 116
-42 165 -54 50 -12 113 -31 140 -42 68 -27 204 -104 235 -133 14 -13 49 -45
78 -70 28 -26 52 -51 52 -57 0 -6 31 -40 69 -76 38 -36 93 -97 122 -136 30
-38 64 -78 76 -88 13 -10 23 -25 23 -32 0 -8 20 -23 44 -33 24 -11 65 -40 91
-66 27 -25 57 -46 66 -46 10 0 23 -9 29 -20 6 -11 21 -20 34 -20 13 0 38 -11
57 -24 19 -14 66 -46 104 -72 75 -50 168 -140 195 -189 9 -16 33 -38 54 -49
20 -10 59 -40 85 -67 49 -50 71 -60 71 -35 0 12 -22 37 -69 81 -6 6 -41 44
-78 86 -112 124 -120 132 -173 179 -28 25 -58 62 -66 83 -12 26 -24 39 -43 42
-55 12 -147 63 -311 177 -54 37 -212 217 -253 288 -16 27 -33 50 -39 50 -6 0
-45 36 -87 80 -42 44 -81 80 -87 80 -5 0 -26 16 -45 36 -18 20 -74 56 -124 81
-49 25 -98 52 -108 61 -11 10 -38 16 -67 17 -33 1 -56 7 -70 20 -15 14 -39 20
-83 21 -34 2 -78 7 -97 12 -47 13 -122 54 -131 72 -39 80 -59 123 -59 127 0 3
12 -3 28 -13 18 -12 53 -19 109 -22z m-872 -72 c-9 -16 -18 -30 -21 -30 -2 0
2 14 11 30 9 17 18 30 21 30 2 0 -2 -13 -11 -30z m8315 -207 c0 -30 -38 -83
-60 -83 -23 0 -25 5 -9 23 5 7 19 27 29 45 21 35 40 42 40 15z m-152 -16 c2
-10 -8 -48 -22 -83 -57 -141 -42 -207 62 -287 64 -50 76 -72 88 -164 9 -76 -2
-86 -85 -77 -36 3 -95 16 -131 28 -90 29 -214 28 -293 -3 -31 -12 -63 -29 -71
-37 -22 -21 -139 -100 -183 -122 -59 -31 -114 -42 -241 -51 -175 -13 -277 -63
-327 -162 -9 -19 -35 -55 -56 -80 -21 -26 -49 -71 -62 -100 -34 -74 -133 -169
-217 -207 -93 -43 -254 -106 -335 -132 -38 -13 -88 -33 -110 -46 -22 -12 -78
-36 -125 -51 -47 -16 -96 -36 -110 -45 -14 -8 -52 -21 -85 -27 -33 -7 -91 -20
-128 -28 -48 -11 -92 -14 -145 -9 -42 3 -134 2 -203 -3 -115 -8 -132 -12 -197
-45 -39 -20 -74 -42 -79 -49 -19 -31 -84 -65 -163 -86 -135 -36 -171 -60 -228
-155 -28 -44 -64 -109 -81 -143 -17 -34 -39 -64 -50 -68 -10 -3 -22 -16 -25
-29 -3 -13 -21 -33 -38 -44 -62 -37 -195 -170 -214 -214 -16 -35 -20 -79 -25
-238 -5 -190 -18 -277 -42 -292 -18 -11 -74 -10 -117 3 -31 9 -42 20 -60 60
-26 55 -27 88 -7 218 13 82 13 100 1 135 -22 61 -61 122 -92 144 -38 27 -121
45 -189 40 l-58 -3 -6 40 c-8 53 -59 161 -120 252 -27 41 -49 82 -49 92 0 10
11 28 25 41 l25 24 58 -30 c46 -24 69 -29 122 -29 91 1 136 27 204 118 76 101
101 120 188 140 66 16 79 23 110 60 19 23 40 58 47 77 21 67 151 172 251 205
90 30 343 144 365 165 12 11 33 20 47 20 14 0 33 9 43 20 38 42 375 127 578
145 74 7 77 7 77 -14 0 -33 1 -35 16 -52 10 -11 13 -26 8 -43 -4 -16 -2 -26 5
-26 6 0 13 12 17 28 21 94 44 122 118 144 46 13 165 128 187 179 6 16 15 29
20 29 20 0 6 -36 -41 -109 -53 -80 -124 -149 -202 -194 -27 -15 -48 -32 -48
-37 0 -22 98 -2 131 26 24 22 28 18 35 -38 8 -58 46 -108 83 -108 43 0 100 32
128 72 23 35 28 51 28 104 0 56 -3 66 -29 93 -17 17 -38 31 -48 31 -22 0 -22
4 -1 38 46 71 109 114 183 123 83 11 189 40 260 71 98 43 217 103 245 124 50
37 106 60 185 79 75 17 163 46 210 70 14 7 39 16 57 20 19 4 47 23 68 47 20
22 39 37 42 34 3 -2 22 4 42 15 29 16 47 18 101 13 36 -4 69 -10 75 -15 12
-11 58 -12 71 -1 5 5 41 14 79 21 39 7 80 14 91 16 27 6 138 124 164 175 11
22 20 50 20 63 0 32 23 51 55 44 21 -3 29 1 40 24 8 15 15 34 15 40 0 20 32
50 49 47 9 -2 17 -11 19 -21z m-7133 -111 c15 -11 17 -21 11 -71 -11 -99 -39
-147 -139 -240 -90 -84 -111 -128 -38 -80 28 19 60 28 127 36 49 5 98 12 109
16 11 3 63 10 115 14 52 5 113 10 135 12 47 4 197 -59 213 -89 5 -11 12 -64
16 -119 11 -180 48 -266 168 -388 122 -123 129 -127 234 -127 48 0 113 5 145
12 l56 11 68 -59 c76 -65 172 -152 293 -262 75 -69 80 -76 92 -133 16 -76 8
-406 -11 -441 -12 -22 -13 -22 -36 27 -12 28 -23 57 -23 66 0 8 -23 43 -51 78
-27 34 -54 73 -59 85 -5 13 -29 36 -55 52 -25 16 -60 38 -78 49 -18 11 -51 27
-74 34 -24 8 -43 18 -43 23 0 4 -15 8 -33 8 -39 0 -58 18 -81 74 l-16 39 65
-6 c36 -4 65 -5 65 -2 0 2 3 10 6 19 5 13 -1 16 -28 16 -27 0 -45 10 -79 41
-52 48 -156 112 -218 134 -67 23 -108 52 -132 93 -57 94 -148 229 -168 246
-11 11 -21 27 -21 37 0 19 -46 79 -61 79 -14 0 -10 -33 6 -54 8 -11 15 -28 15
-38 0 -10 6 -18 13 -18 11 0 77 -132 77 -154 0 -4 14 -24 30 -43 25 -28 40
-63 26 -63 -2 0 -30 24 -61 54 -45 42 -59 63 -64 92 -5 33 -11 39 -40 47 -37
9 -61 33 -90 87 -11 19 -32 44 -48 56 -30 22 -146 44 -234 44 -55 0 -106 18
-128 44 -24 29 -89 58 -97 44 -10 -16 108 -124 153 -139 19 -6 53 -9 74 -6 22
3 42 1 45 -4 3 -5 21 -9 39 -9 30 0 37 -5 54 -38 11 -21 31 -43 45 -50 18 -8
26 -19 26 -36 0 -35 92 -167 158 -226 31 -28 77 -60 102 -72 25 -12 68 -40 95
-63 28 -23 72 -57 100 -76 27 -19 71 -51 97 -71 27 -20 58 -40 71 -44 20 -6
107 -91 107 -104 0 -3 14 -14 31 -24 22 -13 29 -24 26 -38 -4 -15 1 -20 23
-25 16 -3 36 -16 45 -29 8 -13 22 -24 30 -24 7 0 16 -8 20 -19 3 -10 26 -45
51 -77 26 -32 50 -68 55 -79 5 -11 23 -38 39 -60 17 -22 55 -77 84 -122 38
-56 78 -101 130 -144 42 -34 76 -65 76 -70 0 -4 10 -9 22 -11 12 -2 23 -9 26
-15 6 -20 -33 -15 -52 6 -9 10 -29 21 -44 24 -43 9 -135 103 -206 212 -35 55
-77 115 -93 134 -15 18 -33 42 -39 53 -32 59 -219 250 -268 274 -17 9 -40 24
-51 34 -16 14 -155 109 -227 155 -8 6 -41 27 -73 48 -31 21 -73 44 -93 51 -66
25 -140 46 -160 46 -29 0 -125 47 -149 72 -17 18 -22 40 -25 108 -6 97 -37
176 -78 197 -14 7 -46 13 -71 13 -81 0 -121 -68 -83 -142 11 -22 13 -33 5 -41
-8 -8 -11 -5 -11 11 0 17 -6 22 -27 22 -16 -1 -39 -7 -53 -15 -42 -24 -84 -18
-132 18 l-43 33 -3 74 c-2 59 2 89 24 151 32 92 29 113 -16 98 -54 -19 -60
-10 -60 89 0 79 3 94 25 126 14 20 25 41 25 47 0 5 11 21 25 35 13 13 30 34
36 47 7 12 37 55 67 95 50 65 56 80 59 130 6 93 10 102 41 102 16 0 36 -6 47
-14z m7695 -446 c0 -5 -7 -10 -15 -10 -8 0 -15 5 -15 10 0 6 7 10 15 10 8 0
15 -4 15 -10z m-675 -111 c58 -8 89 -7 125 2 47 12 50 11 99 -21 36 -23 62
-50 86 -92 41 -69 42 -81 13 -100 -29 -20 -19 -31 51 -57 40 -14 71 -34 95
-61 31 -35 36 -47 36 -90 0 -45 -4 -54 -39 -89 -31 -31 -57 -44 -138 -70 -133
-42 -222 -39 -275 7 -22 18 -23 77 -3 112 17 30 19 50 5 50 -6 0 -41 -22 -78
-49 -78 -57 -124 -81 -150 -81 -11 0 -30 -9 -44 -19 -13 -11 -53 -27 -89 -36
-144 -38 -234 -88 -383 -214 -109 -92 -214 -174 -243 -190 -37 -19 -70 -12
-113 24 -44 37 -70 45 -70 21 0 -21 107 -115 138 -122 40 -8 92 -32 92 -43 0
-5 15 -28 34 -50 66 -79 69 -128 15 -258 -35 -84 -101 -156 -178 -196 -71 -38
-212 -78 -306 -88 -83 -9 -268 4 -289 20 -6 4 -23 11 -37 15 -15 3 -29 15 -32
26 -3 11 -16 24 -29 29 -20 7 -27 20 -36 64 -12 62 -5 101 27 146 12 16 21 34
21 39 0 5 11 17 24 25 13 9 34 30 46 46 l21 31 -33 -7 c-18 -3 -43 -16 -55
-29 -31 -33 -382 -205 -488 -239 -49 -16 -101 -37 -114 -47 -13 -10 -32 -18
-42 -18 -10 0 -52 -13 -93 -30 -41 -16 -187 -68 -323 -116 -136 -47 -293 -104
-348 -126 -127 -50 -309 -143 -349 -178 -17 -15 -53 -41 -81 -60 -27 -18 -69
-51 -92 -73 -31 -30 -46 -38 -54 -30 -6 6 -8 20 -4 32 10 31 103 171 115 171
5 0 33 25 62 55 79 83 306 230 401 259 9 3 17 12 17 21 0 21 -43 19 -90 -5
-22 -11 -46 -20 -55 -20 -24 0 -211 -117 -266 -166 -26 -23 -51 -43 -57 -45
-12 -5 -88 -126 -107 -173 -9 -20 -19 -35 -24 -32 -15 10 -22 118 -10 177 14
69 46 110 155 200 73 60 177 183 226 269 33 58 147 167 183 176 16 4 90 36
164 72 75 36 154 70 176 75 94 21 195 33 390 48 105 8 160 16 185 29 19 10 51
21 70 25 36 8 170 61 337 133 51 22 107 43 125 47 18 4 47 15 63 25 17 10 61
27 99 39 166 51 325 174 420 327 71 114 110 159 172 200 46 31 68 38 137 46
165 19 271 59 403 153 72 51 189 94 261 95 28 0 86 -5 128 -11z m-5734 -156
c13 -16 12 -17 -3 -4 -17 13 -22 21 -14 21 2 0 10 -8 17 -17z m3766 -15 c-3
-8 -6 -5 -6 6 -1 11 2 17 5 13 3 -3 4 -12 1 -19z m-4216 -874 c13 -14 39 -35
59 -47 75 -46 154 -112 186 -156 18 -25 42 -54 54 -64 33 -28 23 -66 -25 -93
-34 -20 -54 -23 -144 -24 -95 0 -108 2 -167 31 -90 42 -104 60 -104 130 0 65
9 94 38 125 27 29 42 59 42 87 0 45 25 49 61 11z m186 -568 c-1 -6 8 -12 21
-14 30 -5 28 -30 -3 -38 -30 -7 -56 11 -48 33 4 11 3 14 -6 9 -6 -4 -18 -3
-25 3 -19 16 -40 -12 -34 -43 5 -24 4 -24 -17 -8 -21 16 -25 38 -10 62 8 12
124 9 122 -4z"/>
<path d="M9600 23985 c0 -33 -43 -128 -69 -154 -17 -17 -19 -26 -12 -39 10
-16 10 -16 11 1 0 9 6 17 13 17 28 0 49 28 72 95 12 39 26 78 30 88 6 14 2 17
-19 17 -21 0 -26 -5 -26 -25z"/>
<path d="M11690 22222 c0 -4 11 -23 25 -42 14 -19 25 -38 25 -43 0 -19 -43
-63 -73 -73 -43 -15 -44 -30 -2 -38 45 -9 70 -1 118 36 28 22 37 37 37 59 0
37 -24 85 -49 99 -23 12 -81 13 -81 2z"/>
<path d="M11008 21885 c-85 -44 -87 -45 -109 -102 -13 -36 -23 -87 -25 -133
-2 -41 -9 -87 -15 -102 -10 -24 -7 -33 17 -72 25 -38 36 -46 78 -57 80 -19
185 -7 261 30 36 18 70 41 75 52 6 10 30 24 54 30 57 14 96 55 103 108 5 38 2
46 -28 77 -18 19 -41 34 -51 34 -10 0 -31 19 -47 43 -17 23 -39 53 -49 67 -20
25 -122 70 -157 69 -11 0 -59 -20 -107 -44z m156 -80 c74 -19 116 -49 116 -81
0 -32 -13 -30 -50 6 -28 27 -37 30 -95 30 -54 0 -67 -3 -77 -20 -7 -11 -16
-20 -20 -20 -5 0 -27 -18 -49 -40 -63 -61 -86 -53 -50 18 34 65 93 110 161
121 3 1 32 -6 64 -14z m240 -148 c13 -21 -4 -72 -24 -72 -10 0 -16 12 -18 33
-6 60 16 80 42 39z"/>
<path d="M10458 21843 c-15 -16 -35 -50 -45 -78 -12 -31 -28 -54 -42 -62 -56
-27 -59 -108 -8 -156 46 -43 87 -57 168 -57 61 0 78 4 116 28 44 28 54 44 59
96 1 21 -6 35 -27 53 -16 14 -29 35 -30 46 -1 38 -43 111 -78 134 -46 31 -81
29 -113 -4z m106 -64 c52 -41 26 -82 -51 -77 -44 3 -48 5 -51 31 -2 19 4 33
20 47 30 25 49 25 82 -1z"/>
<path d="M10089 21408 c-19 -15 -32 -60 -23 -82 10 -27 59 -19 93 14 24 24 28
35 22 53 -10 26 -66 35 -92 15z"/>
<path d="M5521 21184 c0 -11 3 -14 6 -6 3 7 2 16 -1 19 -3 4 -6 -2 -5 -13z"/>
<path d="M7216 21031 c-24 -38 111 -392 197 -522 66 -98 99 -139 113 -139 22
0 16 35 -11 60 -14 13 -25 28 -25 32 0 5 -11 24 -25 42 -14 18 -25 36 -25 40
0 3 -15 39 -34 79 -19 40 -53 124 -76 187 -38 104 -73 181 -98 219 -7 9 -11
10 -16 2z"/>
<path d="M5630 21000 c0 -6 5 -8 11 -4 9 5 10 -1 5 -20 -3 -14 -2 -26 2 -26
14 0 9 53 -5 58 -7 2 -13 -1 -13 -8z"/>
<path d="M5671 20949 c-1 -19 18 -36 37 -33 6 1 17 2 22 3 6 0 10 5 10 11 0 6
-9 6 -25 0 -22 -8 -27 -7 -35 13 -6 15 -9 17 -9 6z"/>
<path d="M8330 20727 c-25 -12 -46 -30 -48 -40 -2 -9 10 -31 26 -47 55 -54
127 -35 169 44 14 25 5 56 -16 56 -9 0 -32 2 -51 5 -24 3 -49 -2 -80 -18z"/>
<path d="M10390 22262 c0 -5 8 -16 19 -26 17 -15 19 -15 31 0 12 13 11 17 -1
25 -18 11 -49 12 -49 1z"/>
<path d="M10115 22090 c4 -6 11 -8 16 -5 14 9 11 15 -7 15 -8 0 -12 -5 -9 -10z"/>
<path d="M10287 19626 c-46 -43 -30 -86 27 -72 29 7 37 25 27 62 -10 37 -22
39 -54 10z"/>
<path d="M5737 19889 c7 -7 15 -10 18 -7 3 3 -2 9 -12 12 -14 6 -15 5 -6 -5z"/>
<path d="M6496 19534 c-10 -25 -7 -30 16 -31 27 -2 41 16 26 34 -14 18 -35 16
-42 -3z"/>
<path d="M11441 19336 c-8 -10 -9 -16 -2 -21 13 -7 51 12 51 25 0 15 -36 12
-49 -4z"/>
<path d="M7710 18304 c0 -34 36 -74 89 -100 30 -14 75 -44 100 -66 25 -22 62
-48 81 -57 19 -10 62 -34 94 -55 58 -35 96 -46 96 -27 0 19 -36 45 -106 77
-39 18 -74 39 -77 48 -4 9 -14 16 -24 16 -35 0 -222 132 -223 156 0 7 -7 14
-15 18 -9 3 -15 0 -15 -10z"/>
<path d="M8614 18121 c-28 -22 -63 -43 -80 -47 -16 -3 -36 -15 -44 -25 -8 -10
-53 -33 -99 -51 -88 -34 -118 -61 -91 -78 24 -16 67 -11 102 10 18 11 48 20
67 20 25 0 45 11 83 45 28 25 64 53 79 62 30 18 56 80 40 96 -4 4 -30 -10 -57
-32z"/>
<path d="M12877 19250 c-26 -16 -47 -36 -47 -45 0 -19 14 -19 30 -1 6 8 31 23
56 32 24 9 44 23 44 30 0 22 -33 16 -83 -16z"/>
<path d="M10255 18290 c-11 -5 -32 -9 -47 -9 -15 -1 -30 -6 -34 -12 -13 -22
17 -33 84 -31 44 2 81 -3 105 -13 29 -12 46 -13 75 -6 50 14 82 38 82 62 0 23
-24 25 -64 4 -27 -14 -34 -14 -68 0 -42 16 -101 19 -133 5z"/>
<path d="M9843 18057 c-61 -20 -64 -20 -100 -3 -35 17 -38 17 -50 0 -7 -10
-13 -43 -13 -74 0 -44 -4 -61 -20 -75 -26 -23 -25 -43 4 -78 16 -20 35 -30 65
-34 58 -8 107 17 156 80 77 99 90 130 73 178 -12 35 -28 36 -115 6z"/>
<path d="M8876 17484 c-9 -8 -16 -19 -16 -24 0 -45 55 -57 66 -15 12 49 -17
72 -50 39z"/>
<path d="M11005 17610 c-4 -6 -10 -8 -15 -5 -12 8 -90 -16 -90 -27 0 -13 46
-10 82 6 18 8 44 19 58 24 l25 11 -27 0 c-15 1 -30 -4 -33 -9z"/>
<path d="M10705 17549 c-144 -37 -322 -80 -362 -86 -18 -3 -33 -9 -33 -13 0
-4 -14 -10 -32 -14 -31 -6 -68 -32 -68 -47 0 -4 28 1 63 11 34 10 80 23 102
30 22 6 56 16 75 22 19 6 87 22 150 34 227 45 270 59 270 85 0 15 -50 8 -165
-22z"/>
<path d="M10008 17319 c-39 -20 -50 -39 -22 -39 30 0 73 31 74 53 0 11 -11 8
-52 -14z"/>
<path d="M6907 17313 c-4 -3 -7 -11 -7 -17 0 -6 5 -5 12 2 6 6 9 14 7 17 -3 3
-9 2 -12 -2z"/>
<path d="M11694 2010 c-20 -8 -39 -38 -30 -47 8 -8 56 29 56 43 0 8 -1 14 -2
13 -2 0 -12 -4 -24 -9z"/>
<path d="M9222 2030 c-48 -22 -53 -30 -18 -30 24 0 75 34 66 44 -3 2 -24 -4
-48 -14z"/>
<path d="M8788 1994 c-31 -16 -35 -29 -13 -38 23 -9 42 3 48 30 5 28 2 29 -35
8z"/>
<path d="M8502 1968 c-16 -16 -15 -33 2 -47 21 -18 41 11 26 38 -13 25 -12 25
-28 9z"/>
<path d="M7418 1958 c-35 -12 -36 -26 -3 -34 31 -8 55 1 55 20 0 19 -20 25
-52 14z"/>
</g>
</svg>
